<svg xmlns="http://www.w3.org/2000/svg" viewBox="0 0 24 24" width="24" height="24" fill="none">
  <path fill="#6e6e73" d="M12 7.3A4.7 4.7 0 1 0 12 16.7A4.7 4.7 0 1 0 12 7.3M12 15A3 3 0 1 1 12 9A3 3 0 0 1 12 15M18 7.2A1.1 1.1 0 1 0 18 9.4A1.1 1.1 0 1 0 18 7.2M12 2C9.3 2 9 2 8 2C7 2.1 6.3 2.2 5.7 2.4C5 2.7 4.4 3 3.9 3.5C3.4 4 3 4.6 2.8 5.3C2.6 5.9 2.4 6.6 2.4 7.6C2.3 8.6 2.3 8.9 2.3 11.6V12.4C2.3 15.1 2.3 15.4 2.4 16.4C2.4 17.4 2.6 18.1 2.8 18.7C3 19.4 3.4 20 3.9 20.5C4.4 21 5 21.3 5.7 21.6C6.3 21.8 7 21.9 8 22C9 22 9.3 22 12 22C14.7 22 15 22 16 22C17 21.9 17.7 21.8 18.3 21.6C19 21.3 19.6 21 20.1 20.5C20.6 20 21 19.4 21.2 18.7C21.4 18.1 21.6 17.4 21.6 16.4C21.7 15.4 21.7 15.1 21.7 12.4V11.6C21.7 8.9 21.7 8.6 21.6 7.6C21.6 6.6 21.4 5.9 21.2 5.3C21 4.6 20.6 4 20.1 3.5C19.6 3 19 2.7 18.3 2.4C17.7 2.2 17 2.1 16 2C15 2 14.7 2 12 2M12 3.7C14.7 3.7 14.9 3.7 15.9 3.8C16.8 3.8 17.3 4 17.7 4.1C18.2 4.3 18.6 4.5 18.9 4.8C19.2 5.1 19.5 5.5 19.6 6C19.8 6.4 19.9 6.9 20 7.8C20 8.8 20.1 9 20.1 11.7V12.3C20.1 15 20 15.2 20 16.2C19.9 17.1 19.8 17.6 19.6 18C19.5 18.5 19.2 18.9 18.9 19.2C18.6 19.5 18.2 19.7 17.7 19.9C17.3 20 16.8 20.2 15.9 20.2C14.9 20.3 14.7 20.3 12 20.3C9.3 20.3 9.1 20.3 8.1 20.2C7.2 20.2 6.7 20 6.3 19.9C5.8 19.7 5.4 19.5 5.1 19.2C4.8 18.9 4.5 18.5 4.4 18C4.2 17.6 4.1 17.1 4 16.2C4 15.2 3.9 15 3.9 12.3V11.7C3.9 9 4 8.8 4 7.8C4.1 6.9 4.2 6.4 4.4 6C4.5 5.5 4.8 5.1 5.1 4.8C5.4 4.5 5.8 4.3 6.3 4.1C6.7 4 7.2 3.8 8.1 3.8C9.1 3.7 9.3 3.7 12 3.7Z"/>
</svg>
